# xmcd CD database file
#
# Track frame offsets:
#	150
#	30556
#	63032
#	84880
#	117305
#	147797
#	174950
#	190044
#	215259
#	247080
#	266951
#	288364
#	306800
#
# Disc length: 4393 seconds
#
# Revision: 0
# Processed by: cddbd v1.5PL3 Copyright (c) Steve Scherf et al.
# Submitted via: CDex 1.51
#
DISCID=b011270d
DTITLE=Ruby Braff - As time goes by ...
DYEAR=1991
DGENRE=Jazz
TTITLE0=Shoe shine boy
TTITLE1=Lonely moments
TTITLE2=This is all I ask
TTITLE3=Love me or leave me
TTITLE4=Liza
TTITLE5=As long as I live
TTITLE6=Jeepers creepers
TTITLE7=My shining hour
TTITLE8=Sugar
TTITLE9=As time goes by
TTITLE10=You're sensational - I love you, Samantha - True love
TTITLE11=Basin street blues
TTITLE12=Linger Awhile
EXTD=YEAR: 1991
EXTT0=
EXTT1=
EXTT2=
EXTT3=
EXTT4=
EXTT5=
EXTT6=
EXTT7=
EXTT8=
EXTT9=
EXTT10=
EXTT11=
EXTT12=
PLAYORDER=
